<svg xmlns="http://www.w3.org/2000/svg" viewBox="0 0 800 500" width="800" height="500" role="img" aria-label="Бичгийн хэрэгсэл">
  <defs>
    <linearGradient id="bg" x1="0" y1="0" x2="0.6" y2="1">
      <stop offset="0" stop-color="#3c2d1b"/>
      <stop offset="1" stop-color="#140d07"/>
    </linearGradient>
  </defs>
  <rect width="800" height="500" fill="url(#bg)"/>
  <rect x="24" y="24" width="752" height="452" fill="none" stroke="#c9a748" stroke-opacity="0.4"/>
  <g fill="none" stroke="#c9a748" stroke-opacity="0.55" stroke-width="2" stroke-linecap="round">
    <path d="M52 78V52h26M748 78V52h-26M52 422v26h26M748 422v26h-26"/>
  </g>

  <!-- Бэхний сав ба хоёр бийр -->
  <g fill="none" stroke="#ecd68d" stroke-opacity="0.85" stroke-linecap="round">
    <path d="M300 140l120 120M330 130l120 120" stroke-width="10"/>
  </g>
  <g fill="#c9a748">
    <path d="M424 264c12 12 19 24 21 36-13-2-25-9-36-21zM454 254c12 12 19 24 21 36-13-2-25-9-36-21z"/>
  </g>
  <path d="M290 340h220c0 40-30 62-110 62s-110-22-110-62z" fill="#13100b" stroke="#c9a748" stroke-opacity="0.55"/>
  <ellipse cx="400" cy="340" rx="110" ry="20" fill="#453724" stroke="#c9a748" stroke-opacity="0.4"/>
  <text x="400" y="452" text-anchor="middle" fill="#c9a748" fill-opacity="0.62"
        font-family="Georgia, serif" font-size="17" letter-spacing="7">ХЭРЭГСЭЛ</text>
</svg>
